<?xml version="1.0" standalone="no"?>
<!DOCTYPE svg PUBLIC "-//W3C//DTD SVG 20010904//EN"
 "http://www.w3.org/TR/2001/REC-SVG-20010904/DTD/svg10.dtd">
<svg version="1.0" xmlns="http://www.w3.org/2000/svg"
 width="512.000000pt" height="512.000000pt" viewBox="0 0 512.000000 512.000000"
 preserveAspectRatio="xMidYMid meet">

<g transform="translate(0.000000,512.000000) scale(0.100000,-0.100000)"
fill="#000000" stroke="none">
<path d="M2455 5110 c-115 -25 -198 -73 -279 -160 -185 -201 -192 -519 -14
-706 l29 -31 -68 -6 c-143 -11 -261 -75 -345 -184 -88 -116 -92 -138 -96 -454
l-3 -277 27 -21 c27 -21 31 -22 447 -19 l419 3 19 24 c25 30 24 62 -2 95 l-20
26 -210 0 -209 0 0 124 c0 68 -3 132 -6 141 -18 45 -111 48 -134 5 -6 -10 -10
-75 -10 -144 l0 -126 -86 0 -85 0 3 213 c3 199 5 215 27 259 31 64 94 126 161
157 l55 26 485 0 485 0 56 -26 c68 -32 120 -82 157 -152 27 -51 27 -55 30
-264 l3 -213 -85 0 -86 0 0 126 c0 69 -4 134 -10 144 -23 43 -116 40 -134 -5
-3 -9 -6 -73 -6 -141 l0 -124 -58 0 c-48 0 -62 -4 -80 -23 -27 -29 -28 -67 -3
-98 l19 -24 269 -3 c261 -3 270 -2 296 18 l27 21 0 259 c0 231 -2 265 -20 324
-57 184 -226 319 -418 333 l-73 6 29 31 c70 74 119 188 129 300 19 234 -133
470 -353 547 -67 23 -215 33 -279 19z m250 -170 c82 -32 173 -122 205 -205 33
-82 33 -205 1 -287 -75 -192 -295 -282 -501 -205 -39 14 -73 38 -116 81 -199
199 -122 530 145 623 82 29 177 27 266 -7z"/>
<path d="M854 4656 c-17 -8 -34 -21 -38 -31 -3 -9 -6 -120 -6 -246 l0 -229
-177 0 c-159 0 -181 -2 -210 -20 -72 -43 -68 -8 -68 -660 0 -652 -4 -617 68
-660 29 -18 51 -20 210 -20 l177 0 0 -256 0 -257 -50 47 c-36 34 -57 46 -80
46 -40 0 -70 -31 -70 -73 0 -29 15 -48 123 -155 100 -99 129 -122 152 -122 24
0 52 23 152 123 133 133 142 150 102 201 -33 42 -73 36 -131 -21 l-48 -47 0
257 0 257 178 0 c158 0 180 2 209 20 65 39 63 19 63 662 0 567 -1 584 -20 616
-33 54 -67 62 -260 62 l-170 0 0 185 0 185 413 0 c402 0 414 1 432 20 25 28
23 76 -4 103 -21 22 -23 22 -469 24 -360 2 -453 0 -478 -11z m406 -1186 l0
-530 -380 0 -380 0 0 530 0 530 380 0 380 0 0 -530z"/>
<path d="M710 3843 c-52 -20 -68 -85 -30 -123 19 -19 33 -20 204 -20 l185 0
20 26 c26 33 27 65 2 95 -19 23 -24 24 -193 26 -95 1 -180 -1 -188 -4z"/>
<path d="M680 3520 c-25 -25 -26 -71 -1 -101 18 -23 25 -24 172 -27 84 -2 168
-1 186 3 68 13 92 68 52 119 l-20 26 -185 0 c-171 0 -185 -1 -204 -20z"/>
<path d="M680 3220 c-30 -30 -27 -83 6 -109 23 -18 41 -21 124 -21 111 0 135
11 146 67 5 26 1 37 -19 57 -25 25 -32 26 -132 26 -92 0 -108 -3 -125 -20z"/>
<path d="M3345 4660 c-49 -19 -64 -82 -30 -120 18 -19 30 -20 432 -20 l413 0
0 -185 0 -185 -170 0 c-193 0 -227 -8 -260 -62 -19 -32 -20 -49 -20 -616 0
-643 -2 -623 63 -662 29 -18 51 -20 210 -20 l177 0 0 -257 0 -257 -48 47 c-58
57 -98 63 -131 21 -40 -51 -31 -68 102 -201 100 -100 128 -123 152 -123 23 0
52 23 152 122 108 107 123 126 123 155 0 42 -30 73 -70 73 -23 0 -44 -12 -80
-46 l-50 -47 0 256 0 256 189 3 190 3 31 30 c16 16 35 46 40 67 7 24 10 242 8
601 -3 626 0 594 -71 637 -29 18 -51 20 -209 20 l-178 0 0 231 c0 131 -4 238
-10 249 -5 10 -24 23 -41 29 -38 13 -882 14 -914 1z m1275 -1190 l0 -530 -380
0 -380 0 0 530 0 530 380 0 380 0 0 -530z"/>
<path d="M4053 3840 c-45 -19 -55 -72 -22 -114 l20 -26 185 0 c171 0 185 1
204 20 27 27 26 81 -1 106 -19 17 -40 19 -193 21 -94 1 -181 -2 -193 -7z"/>
<path d="M4031 3514 c-40 -51 -16 -106 52 -119 18 -4 102 -5 186 -3 147 3 154
4 172 27 25 30 24 76 -1 101 -19 19 -33 20 -204 20 l-185 0 -20 -26z"/>
<path d="M4035 3215 c-14 -13 -25 -36 -25 -50 0 -14 11 -37 25 -50 22 -23 31
-25 125 -25 94 0 103 2 125 25 32 31 33 74 2 103 -21 20 -34 22 -126 22 -95 0
-104 -2 -126 -25z"/>
<path d="M2428 2990 c-256 -41 -470 -162 -624 -355 -78 -97 -144 -221 -180
-341 -26 -82 -28 -103 -28 -259 -1 -155 2 -179 26 -267 81 -289 252 -497 510
-617 148 -70 227 -86 428 -86 201 0 279 16 428 85 258 121 429 329 510 618 24
88 27 112 26 267 0 156 -2 177 -27 258 -127 413 -478 686 -902 702 -60 2 -136
0 -167 -5z m310 -166 c243 -50 447 -204 556 -421 79 -158 108 -397 67 -565
-133 -558 -770 -815 -1251 -504 -182 118 -324 331 -361 541 -15 86 -7 279 16
359 38 143 97 252 188 352 103 112 266 204 422 237 94 21 267 21 363 1z"/>
<path d="M2871 2435 c-37 -11 -78 -47 -228 -197 l-182 -182 -78 75 c-66 65
-86 78 -131 89 -149 35 -276 -66 -277 -220 0 -91 23 -125 207 -307 142 -140
158 -153 212 -168 64 -19 107 -15 171 15 48 23 554 528 580 579 55 108 10 247
-98 303 -51 26 -122 31 -176 13z m124 -160 c52 -51 48 -57 -243 -347 -204
-205 -273 -268 -292 -268 -36 0 -340 305 -340 342 0 35 28 67 67 74 31 6 39 0
137 -95 89 -86 109 -101 137 -101 29 0 55 22 244 210 230 228 241 235 290 185z"/>
<path d="M770 1854 c-238 -51 -411 -266 -413 -513 -2 -129 36 -239 113 -331
l38 -46 -86 -12 c-115 -15 -198 -56 -280 -138 -69 -69 -115 -154 -132 -243 -5
-30 -10 -159 -10 -288 l0 -234 25 -24 24 -25 339 0 c328 0 340 1 366 21 36 28
36 80 0 108 -24 19 -40 21 -155 21 l-129 0 0 130 c0 117 -2 132 -20 150 -27
27 -81 26 -106 -1 -16 -18 -19 -40 -22 -150 l-4 -129 -85 0 -85 0 4 208 c3
191 5 211 26 253 37 75 87 125 160 161 l67 33 480 0 480 0 57 -27 c99 -46 166
-135 188 -247 5 -30 10 -127 10 -217 l0 -164 -90 0 -90 0 0 130 c0 117 -2 132
-20 150 -27 27 -81 26 -106 -1 -16 -18 -19 -40 -22 -150 l-4 -129 -128 0
c-110 0 -131 -3 -151 -19 -32 -26 -32 -86 0 -112 22 -18 46 -19 361 -19 186 0
346 3 355 6 38 15 45 55 45 266 0 112 -5 235 -10 273 -33 224 -206 387 -437
411 l-62 7 39 51 c76 102 110 201 110 319 0 257 -193 487 -440 527 -83 13
-120 12 -200 -6z m192 -148 c85 -18 120 -37 184 -98 163 -154 146 -440 -34
-573 -184 -136 -453 -78 -559 122 -118 221 -4 482 237 547 70 19 90 19 172 2z"/>
<path d="M4140 1859 c-141 -23 -295 -137 -364 -268 -103 -196 -87 -401 44
-577 l39 -51 -65 -7 c-121 -12 -247 -75 -320 -160 -50 -57 -101 -168 -114
-246 -5 -36 -10 -159 -10 -273 0 -217 7 -256 45 -271 9 -3 139 -6 289 -6 261
0 274 1 300 21 19 15 26 30 26 54 0 51 -36 75 -116 75 l-62 0 -4 129 c-3 110
-6 132 -22 150 -25 27 -79 28 -106 1 -18 -18 -20 -33 -20 -150 l0 -130 -90 0
-90 0 0 173 c0 194 12 263 60 337 34 53 82 93 148 123 46 22 55 22 527 22
l480 0 67 -33 c73 -36 123 -86 160 -161 21 -42 23 -62 26 -254 l4 -207 -85 0
-85 0 -4 131 c-3 123 -4 132 -27 150 -30 25 -76 24 -101 -1 -18 -18 -20 -33
-20 -150 l0 -130 -194 0 c-174 0 -196 -2 -217 -19 -32 -26 -32 -86 0 -112 22
-18 47 -19 428 -19 l404 0 24 25 25 24 0 234 c0 129 -5 258 -10 288 -17 90
-63 174 -134 245 -81 81 -162 121 -279 137 l-85 11 38 46 c168 201 148 512
-46 706 -120 120 -287 172 -464 143z m237 -171 c154 -57 240 -196 231 -372
-14 -253 -244 -413 -487 -337 -263 82 -348 415 -157 619 104 112 263 146 413
90z"/>
</g>
</svg>
