<?xml version="1.0" standalone="no"?>
<!DOCTYPE svg PUBLIC "-//W3C//DTD SVG 20010904//EN"
 "http://www.w3.org/TR/2001/REC-SVG-20010904/DTD/svg10.dtd">
<svg version="1.0" xmlns="http://www.w3.org/2000/svg"
 width="512.000000pt" height="512.000000pt" viewBox="0 0 512.000000 512.000000"
 preserveAspectRatio="xMidYMid meet">

<g transform="translate(0.000000,512.000000) scale(0.100000,-0.100000)"
fill="#000000" stroke="none">
<path d="M2497 3999 c-162 -17 -287 -79 -413 -205 -70 -69 -89 -95 -132 -185
-60 -125 -82 -215 -82 -343 0 -131 21 -222 81 -345 44 -91 63 -117 138 -191
139 -138 292 -203 481 -203 254 0 472 135 604 371 62 112 88 216 89 362 1 131
-11 199 -56 305 -121 289 -411 466 -710 434z"/>
<path d="M985 3899 c-136 -17 -251 -77 -355 -185 -326 -343 -185 -923 260
-1066 91 -29 249 -29 340 1 199 63 360 238 416 451 23 86 22 243 -1 330 -80
304 -363 505 -660 469z"/>
<path d="M3985 3899 c-243 -33 -444 -217 -510 -469 -23 -84 -23 -244 -1 -326
76 -288 309 -478 586 -478 266 1 487 166 575 429 35 104 43 239 21 345 -39
185 -178 368 -336 442 -112 53 -224 72 -335 57z"/>
<path d="M785 2539 c-382 -52 -688 -339 -765 -719 -17 -81 -20 -138 -20 -329
l0 -231 588 2 587 3 6 165 c8 190 31 295 98 448 75 173 215 353 356 460 33 25
64 48 68 52 10 8 -80 61 -156 92 -126 51 -188 60 -447 63 -135 2 -276 -1 -315
-6z"/>
<path d="M3810 2540 c-121 -14 -241 -52 -339 -108 l-52 -29 68 -54 c308 -241
472 -582 473 -986 l0 -103 580 0 580 0 0 231 c0 191 -3 248 -20 329 -79 387
-387 671 -780 720 -93 11 -408 11 -510 0z"/>
<path d="M2255 2289 c-335 -50 -605 -271 -725 -591 -39 -106 -50 -191 -50
-394 l0 -194 1091 0 1092 0 -6 213 c-6 243 -19 314 -87 456 -119 248 -326 419
-597 493 -70 19 -108 21 -368 24 -159 1 -317 -2 -350 -7z"/>
</g>
</svg>
