<?xml version="1.0" standalone="no"?>
<!DOCTYPE svg PUBLIC "-//W3C//DTD SVG 20010904//EN"
 "http://www.w3.org/TR/2001/REC-SVG-20010904/DTD/svg10.dtd">
<svg version="1.0" xmlns="http://www.w3.org/2000/svg"
 width="512.000000pt" height="512.000000pt" viewBox="0 0 512.000000 512.000000"
 preserveAspectRatio="xMidYMid meet">

<g transform="translate(0.000000,512.000000) scale(0.100000,-0.100000)"
fill="#000000" stroke="none">
<path d="M932 4884 c-122 -61 -168 -219 -98 -338 42 -71 201 -202 319 -263 44
-22 48 -26 35 -41 -113 -133 -478 -573 -491 -592 -24 -34 -21 -67 8 -95 24
-25 26 -25 215 -25 l191 0 -3 -141 -3 -141 -335 -180 c-184 -99 -344 -187
-354 -196 -10 -9 -47 -60 -81 -112 -34 -52 -124 -189 -199 -304 -81 -123 -136
-218 -136 -232 0 -14 11 -36 25 -49 24 -25 27 -25 195 -25 l170 0 0 -948 0
-949 23 -21 c22 -21 32 -22 199 -22 l177 0 20 26 c19 24 21 40 21 180 l0 154
264 0 264 0 4 -161 c4 -211 -9 -199 220 -199 95 0 178 4 188 10 29 16 40 73
40 218 l0 132 265 0 265 0 0 -154 c0 -140 2 -156 21 -180 l20 -26 179 0 179 0
20 26 c19 24 21 40 21 180 l0 154 265 0 265 0 0 -132 c0 -145 11 -202 40 -218
24 -13 345 -13 370 0 30 16 40 67 40 211 l0 139 265 0 265 0 0 -154 c0 -140 2
-156 21 -180 l20 -26 178 0 c173 0 178 1 199 23 l22 23 0 947 0 947 170 0
c168 0 171 0 195 25 14 13 25 35 25 48 0 15 -56 110 -136 233 -76 115 -165
252 -199 304 -34 52 -71 103 -81 112 -10 9 -170 97 -354 196 l-335 180 -3 141
-3 141 191 0 c189 0 191 0 215 25 29 28 32 61 8 95 -13 19 -378 459 -491 592
-13 15 -9 19 35 41 131 67 289 202 327 279 80 160 -36 348 -213 348 -73 -1
-124 -24 -213 -100 -88 -74 -167 -119 -273 -157 l-80 -28 -955 0 -955 0 -80
28 c-106 38 -185 83 -273 157 -39 33 -91 70 -115 80 -62 28 -141 26 -205 -6z
m229 -193 c99 -83 221 -149 344 -188 l90 -28 965 0 965 0 90 28 c123 39 245
105 344 188 71 58 90 69 122 69 48 0 89 -44 89 -96 0 -29 -9 -44 -52 -86 -152
-146 -377 -254 -597 -289 -43 -6 -401 -9 -1006 -6 -930 3 -941 3 -1018 25
-207 58 -379 154 -508 283 -50 50 -54 96 -10 140 49 49 83 41 182 -40z m255
-516 c149 -44 181 -45 1144 -45 962 0 1010 2 1139 45 25 8 53 15 62 15 11 0
99 -96 230 -252 l211 -253 -497 -3 -498 -2 -311 167 c-170 91 -322 166 -336
166 -14 0 -166 -75 -336 -166 l-311 -167 -498 2 -497 3 211 253 c117 138 218
252 225 252 7 0 35 -7 62 -15z m2047 -802 l892 -478 -1293 -5 c-1266 -5 -1294
-5 -1308 -24 -21 -29 -18 -80 7 -102 20 -18 62 -19 1441 -24 l1420 -5 139
-212 c76 -117 139 -215 139 -218 0 -3 -1053 -5 -2340 -5 -1287 0 -2340 2
-2340 5 0 3 63 101 139 218 l139 212 520 5 c493 5 521 6 541 24 25 22 28 73 7
102 -14 18 -33 19 -408 24 l-393 5 890 477 c490 263 896 477 903 478 8 0 415
-215 905 -477z m-1858 144 c-11 -8 -69 -40 -130 -72 -60 -32 -134 -71 -162
-87 l-53 -29 0 100 0 101 182 0 c155 0 179 -2 163 -13z m2255 -88 l0 -100 -52
29 c-29 16 -102 55 -163 87 -173 92 -175 85 33 85 l182 0 0 -101z m-3180
-2174 l0 -895 -70 0 -70 0 0 895 0 895 70 0 70 0 0 -895z m1660 325 l0 -570
-755 0 -755 0 0 570 0 570 755 0 755 0 0 -570z m290 0 l0 -570 -70 0 -70 0 0
570 0 570 70 0 70 0 0 -570z m550 430 l0 -140 -200 0 -200 0 0 140 0 140 200
0 200 0 0 -140z m560 0 l0 -140 -205 0 -205 0 0 140 0 140 205 0 205 0 0 -140z
m550 0 l0 -140 -200 0 -200 0 0 140 0 140 200 0 200 0 0 -140z m290 -755 l0
-895 -70 0 -70 0 0 895 0 895 70 0 70 0 0 -895z m-1400 325 l0 -140 -200 0
-200 0 0 140 0 140 200 0 200 0 0 -140z m560 0 l0 -140 -205 0 -205 0 0 140 0
140 205 0 205 0 0 -140z m550 0 l0 -140 -200 0 -200 0 0 140 0 140 200 0 200
0 0 -140z m-1110 -430 l0 -140 -200 0 -200 0 0 140 0 140 200 0 200 0 0 -140z
m560 0 l0 -140 -205 0 -205 0 0 140 0 140 205 0 205 0 0 -140z m550 0 l0 -140
-200 0 -200 0 0 140 0 140 200 0 200 0 0 -140z m0 -360 l0 -70 -1730 0 -1730
0 0 70 0 70 1730 0 1730 0 0 -70z m-2640 -325 l0 -105 -70 0 -70 0 0 105 0
105 70 0 70 0 0 -105z m980 0 l0 -105 -70 0 -70 0 0 105 0 105 70 0 70 0 0
-105z m980 0 l0 -105 -70 0 -70 0 0 105 0 105 70 0 70 0 0 -105z"/>
</g>
</svg>
