<?xml version="1.0" standalone="no"?>
<!DOCTYPE svg PUBLIC "-//W3C//DTD SVG 20010904//EN"
 "http://www.w3.org/TR/2001/REC-SVG-20010904/DTD/svg10.dtd">
<svg version="1.0" xmlns="http://www.w3.org/2000/svg"
 width="512.000000pt" height="512.000000pt" viewBox="0 0 512.000000 512.000000"
 preserveAspectRatio="xMidYMid meet">

<g transform="translate(0.000000,512.000000) scale(0.100000,-0.100000)"
fill="#000000" stroke="none">
<path d="M3577 5098 c-17 -17 -33 -69 -66 -206 -43 -181 -44 -184 -76 -199
l-32 -15 -165 101 c-108 66 -175 101 -193 101 -23 0 -55 -26 -174 -144 -130
-129 -145 -148 -145 -178 1 -24 28 -76 101 -195 l101 -162 -16 -32 c-17 -33
-20 -34 -202 -77 -128 -30 -191 -49 -205 -63 -18 -18 -20 -35 -23 -202 -4
-198 4 -252 41 -267 12 -6 101 -28 197 -51 96 -22 176 -42 176 -42 1 -1 8 -16
17 -32 l15 -31 -104 -169 c-57 -94 -104 -179 -104 -190 0 -27 299 -325 326
-325 11 0 96 47 189 104 164 101 169 103 199 91 30 -13 32 -17 78 -206 32
-133 52 -197 64 -206 29 -21 71 -25 256 -21 162 3 179 5 197 23 14 14 33 77
64 205 43 184 43 185 77 201 l33 16 161 -100 c118 -73 170 -100 194 -101 30 0
49 15 178 145 117 118 144 151 144 174 0 18 -36 86 -101 192 l-102 165 16 33
c15 32 18 33 174 70 87 20 173 41 190 47 60 18 63 31 63 253 0 186 -2 203 -19
222 -14 15 -63 31 -173 58 -239 57 -225 51 -237 87 -12 35 -21 16 122 252 37
60 67 121 67 135 0 37 -283 321 -320 321 -14 0 -97 -44 -191 -100 -157 -95
-167 -100 -197 -89 -36 12 -31 0 -88 237 -26 110 -42 159 -57 173 -19 18 -36
19 -224 19 -198 0 -205 -1 -226 -22z m352 -165 c6 -21 24 -99 42 -173 17 -74
37 -144 44 -155 13 -22 130 -74 182 -82 28 -4 55 9 189 92 l157 97 84 -85 85
-84 -97 -157 c-83 -134 -96 -161 -92 -189 8 -52 60 -169 82 -182 11 -7 81 -27
155 -44 74 -18 152 -36 173 -42 l37 -10 0 -118 0 -117 -179 -43 c-111 -26
-185 -49 -194 -59 -19 -22 -77 -161 -77 -185 0 -24 6 -35 108 -200 l85 -139
-79 -79 c-43 -43 -83 -79 -89 -79 -6 0 -76 40 -156 89 -80 49 -155 91 -167 95
-14 5 -45 -3 -89 -22 -37 -16 -76 -32 -85 -35 -36 -12 -45 -41 -123 -375 -5
-22 -8 -23 -123 -20 l-117 3 -38 160 c-54 225 -47 215 -160 259 -111 44 -84
51 -287 -75 -71 -43 -132 -79 -136 -79 -11 0 -164 152 -164 163 0 5 36 66 79
137 126 203 119 176 75 287 -44 113 -33 106 -259 160 l-160 38 -3 117 c-2 105
-1 117 15 121 10 3 89 22 175 42 148 35 208 60 208 87 0 5 14 41 31 79 20 47
28 77 23 92 -4 12 -47 86 -95 165 -49 79 -89 149 -89 156 0 6 36 47 79 90 l79
79 139 -85 c165 -102 176 -108 200 -108 24 0 163 58 185 77 11 10 33 81 59
194 l43 179 118 0 117 0 10 -37z"/>
<path d="M3675 4212 c-114 -39 -215 -126 -260 -224 -122 -263 36 -559 325
-610 180 -31 369 72 453 249 30 63 32 75 32 175 0 93 -3 110 -21 135 -30 40
-84 44 -113 7 -19 -24 -21 -35 -15 -104 11 -132 -40 -231 -150 -287 -67 -35
-169 -38 -237 -7 -186 86 -222 336 -68 468 63 54 124 70 230 62 80 -6 90 -5
109 14 25 25 27 81 3 102 -45 40 -200 50 -288 20z"/>
<path d="M1452 4113 c-21 -8 -44 -62 -36 -86 4 -12 34 -50 66 -84 l60 -62
-299 -3 c-332 -3 -335 -4 -413 -75 -24 -21 -54 -60 -66 -88 -23 -49 -24 -56
-24 -367 l0 -317 26 -20 c40 -32 84 -26 107 13 8 15 13 113 17 327 5 289 6
308 25 329 41 47 67 50 362 50 l277 0 -68 -69 c-55 -56 -69 -76 -69 -100 0
-43 28 -71 71 -71 32 0 49 13 170 133 73 72 138 143 143 155 15 40 -15 83
-152 216 -129 127 -149 139 -197 119z"/>
<path d="M1087 2612 c-9 -10 -36 -101 -60 -202 -43 -182 -44 -185 -76 -202
l-33 -16 -106 66 c-225 139 -239 146 -271 133 -15 -7 -90 -74 -165 -150 -110
-112 -136 -143 -136 -166 0 -18 35 -86 101 -192 98 -160 100 -164 88 -197
l-12 -33 -186 -44 c-140 -33 -192 -49 -208 -66 -22 -21 -23 -28 -23 -226 0
-188 1 -205 19 -224 14 -15 63 -31 173 -58 239 -57 225 -51 237 -87 12 -35 21
-16 -122 -252 -37 -61 -67 -121 -67 -135 0 -38 284 -321 321 -321 14 0 75 30
135 67 236 143 217 134 252 122 36 -12 30 2 87 -237 27 -110 43 -159 58 -173
19 -18 36 -19 224 -19 198 0 205 1 226 22 17 17 33 69 66 209 l44 186 33 12
c33 12 38 10 197 -88 106 -66 174 -101 192 -101 23 0 54 26 166 136 76 75 143
150 149 165 14 33 14 32 -117 245 l-82 132 17 33 c17 32 20 33 201 76 103 24
193 50 203 60 16 15 18 36 18 228 0 207 -1 212 -22 232 -16 14 -80 34 -203 62
-99 24 -183 46 -186 49 -3 4 -10 19 -16 33 -10 23 -2 40 90 189 66 108 100
174 100 193 0 24 -25 54 -146 174 -120 121 -150 146 -174 146 -19 0 -85 -34
-193 -100 -149 -92 -166 -100 -189 -90 -14 6 -29 13 -33 16 -4 3 -26 87 -49
186 -28 122 -48 187 -62 203 -20 21 -25 22 -232 22 -191 0 -214 -2 -228 -18z
m392 -311 c24 -99 48 -184 55 -190 15 -13 177 -81 192 -81 6 0 82 43 168 95
86 52 160 95 164 95 10 0 162 -153 162 -163 0 -5 -38 -70 -84 -145 -121 -196
-115 -174 -71 -281 21 -50 43 -95 50 -101 10 -8 334 -90 358 -90 4 0 6 -55 5
-122 l-3 -122 -165 -38 c-91 -22 -176 -47 -188 -56 -22 -16 -90 -160 -92 -192
0 -9 43 -85 95 -170 52 -85 95 -160 95 -165 0 -6 -36 -46 -79 -89 l-79 -78
-158 96 c-87 53 -167 96 -179 96 -26 0 -164 -57 -187 -77 -11 -10 -33 -81 -60
-194 l-42 -179 -118 0 -117 0 -10 38 c-6 20 -26 102 -44 180 -19 79 -41 150
-48 157 -19 17 -165 75 -191 75 -12 0 -91 -43 -176 -96 l-155 -96 -84 85 -85
84 96 155 c53 85 96 164 96 174 0 35 -64 186 -85 199 -11 7 -81 27 -155 44
-74 18 -152 36 -172 42 l-38 10 0 117 0 117 179 43 c113 27 184 49 194 60 20
23 77 161 77 187 0 11 -43 91 -96 178 l-97 159 79 79 c43 43 83 79 89 79 6 0
80 -43 165 -95 85 -52 162 -95 170 -94 32 1 176 69 192 91 9 12 33 93 53 178
20 85 38 161 40 168 3 9 37 12 123 12 l118 0 43 -179z"/>
<path d="M1209 1732 c-176 -46 -307 -204 -317 -383 -5 -84 10 -163 35 -191 22
-25 78 -23 103 2 19 19 20 29 14 109 -8 108 9 169 66 234 53 60 125 91 210 91
204 0 337 -214 247 -396 -56 -114 -152 -165 -288 -155 -68 6 -80 4 -104 -15
-36 -28 -32 -82 8 -112 25 -18 42 -21 136 -21 104 0 109 1 183 38 130 64 215
177 239 320 37 223 -121 443 -350 487 -72 13 -104 12 -182 -8z"/>
<path d="M4259 2111 l-24 -19 -5 -309 c-4 -277 -7 -312 -23 -337 -34 -52 -61
-56 -364 -56 l-277 0 67 68 c58 58 67 73 67 103 0 45 -25 69 -71 69 -31 0 -48
-14 -171 -137 -75 -76 -139 -148 -143 -160 -10 -36 16 -71 153 -205 106 -104
135 -128 159 -128 34 1 59 18 71 51 14 36 -2 67 -65 131 l-56 57 299 3 c258 3
304 6 337 21 51 24 114 82 140 131 21 39 22 54 25 367 l3 327 -27 21 c-33 26
-65 27 -95 2z"/>
</g>
</svg>
